<?xml version="1.0" encoding="UTF-8"?><svg id="Calque_1" xmlns="http://www.w3.org/2000/svg" width="546.84" height="533.33" viewBox="0 0 546.84 533.33"><defs><style>.cls-1{fill-rule:evenodd;}.cls-1,.cls-2{fill:#fff;stroke-width:0px;}</style></defs><path class="cls-1" d="m273.42,0C122.43,0,0,122.41,0,273.42c0,120.8,78.34,223.29,186.98,259.44,13.66,2.53,18.68-5.93,18.68-13.15,0-6.51-.25-28.06-.37-50.9-76.06,16.54-92.12-32.26-92.12-32.26-12.44-31.6-30.36-40.01-30.36-40.01-24.81-16.97,1.87-16.62,1.87-16.62,27.46,1.93,41.91,28.18,41.91,28.18,24.39,41.8,63.96,29.71,79.57,22.72,2.46-17.67,9.54-29.73,17.36-36.56-60.73-6.91-124.57-30.36-124.57-135.12,0-29.85,10.68-54.24,28.17-73.38-2.84-6.89-12.2-34.7,2.65-72.36,0,0,22.96-7.35,75.2,28.03,21.81-6.06,45.2-9.1,68.44-9.2,23.24.1,46.64,3.15,68.49,9.2,52.19-35.38,75.11-28.03,75.11-28.03,14.88,37.66,5.52,65.47,2.68,72.36,17.53,19.15,28.13,43.54,28.13,73.38,0,105.02-63.96,128.14-124.85,134.91,9.81,8.48,18.55,25.12,18.55,50.63,0,36.58-.31,66.03-.31,75.03,0,7.28,4.92,15.81,18.78,13.12,108.58-36.19,186.83-138.65,186.83-259.41C546.84,122.4,424.42,0,273.42,0"/><path class="cls-2" d="m103.56,392.57c-.6,1.36-2.74,1.77-4.69.83-1.99-.89-3.1-2.74-2.46-4.11.59-1.4,2.73-1.78,4.71-.85,1.98.89,3.11,2.76,2.43,4.12m11.08,12.35c-1.3,1.21-3.86.65-5.58-1.26-1.79-1.91-2.12-4.46-.8-5.68,1.35-1.21,3.82-.64,5.6,1.26,1.79,1.93,2.14,4.46.78,5.68m10.78,15.75c-1.67,1.17-4.42.08-6.11-2.35-1.67-2.44-1.67-5.35.04-6.52,1.69-1.17,4.4-.12,6.11,2.29,1.67,2.47,1.67,5.39-.04,6.58m14.77,15.22c-1.5,1.65-4.69,1.21-7.03-1.05-2.39-2.2-3.05-5.33-1.56-6.99,1.52-1.66,4.73-1.19,7.08,1.05,2.37,2.2,3.09,5.35,1.5,6.99m20.38,8.83c-.67,2.14-3.73,3.11-6.83,2.2-3.09-.94-5.12-3.44-4.49-5.6.64-2.16,3.73-3.17,6.85-2.2,3.09.93,5.12,3.42,4.47,5.6m22.38,1.64c.08,2.26-2.55,4.12-5.8,4.16-3.27.08-5.92-1.75-5.95-3.97,0-2.28,2.57-4.12,5.84-4.18,3.25-.06,5.92,1.75,5.92,3.99m20.82-3.54c.39,2.19-1.87,4.45-5.1,5.06-3.17.58-6.11-.78-6.52-2.96-.39-2.26,1.9-4.51,5.08-5.1,3.23-.56,6.13.76,6.54,3"/></svg>