<?xml version="1.0" encoding="UTF-8"?><svg id="Calque_1" xmlns="http://www.w3.org/2000/svg" width="902.05" height="382.23" xmlns:xlink="http://www.w3.org/1999/xlink" viewBox="0 0 902.05 382.23"><defs><style>.cls-1{fill:url(#Dégradé_sans_nom_81);}</style><linearGradient id="Dégradé_sans_nom_81" x1="21.03" y1="191.11" x2="902.05" y2="191.11" gradientUnits="userSpaceOnUse"><stop offset="0" stop-color="#fff"/><stop offset="1" stop-color="#fff"/></linearGradient></defs><path class="cls-1" d="m26.45,230.42l-5.42,48.8,5.42,48.8c0,2.71,2.71,2.71,2.71,2.71,2.71,0,2.71-2.71,2.71-2.71l8.13-48.8-8.13-48.8c0-2.71-2.71-2.71-2.71-2.71,0,0-2.71,0-2.71,2.71m32.53-29.82l-8.13,78.61,8.13,78.61c0,2.71,2.71,2.71,2.71,2.71,2.71,0,2.71-2.71,2.71-2.71l10.84-78.61-10.84-78.61c0-2.71-2.71-2.71-2.71-2.71l-2.71,2.71m103.01-10.84l-5.42,89.46,5.42,94.88c0,2.71,2.71,5.42,5.42,5.42s5.42-2.71,5.42-5.42l10.84-94.88-8.13-89.46c0-2.71-2.71-5.42-5.42-5.42-5.42,0-8.13,2.71-8.13,5.42m-67.77-5.42l-8.13,94.88,8.13,89.46c0,2.71,2.71,5.42,5.42,5.42,0,0,2.71-2.71,2.71-5.42l8.13-89.46-8.13-94.88c0-2.71-2.71-5.42-5.42-5.42,0,2.71-2.71,2.71-2.71,5.42m32.53-2.71l-8.13,97.59,8.13,92.17c0,2.71,2.71,5.42,5.42,5.42s5.42-2.71,5.42-5.42l8.13-92.17-8.13-97.59c0-2.71-2.71-5.42-5.42-5.42s-2.71,2.71-5.42,5.42m70.48-48.8l-8.13,146.39,8.13,94.88c0,2.71,2.71,5.42,5.42,5.42,5.42,0,8.13-2.71,8.13-5.42l8.13-94.88-8.13-146.39c0-2.71-2.71-5.42-5.42-5.42-5.42,0-8.13,2.71-8.13,5.42m35.24-32.53l-5.42,178.92,5.42,94.88c0,5.42,2.71,8.13,8.13,8.13,2.71,0,8.13-2.71,8.13-8.13l8.13-94.88-8.13-178.92c0-5.42-2.71-8.13-8.13-8.13s-8.13,2.71-8.13,8.13m143.67-8.13l-5.42,187.05,5.42,89.46c0,5.42,5.42,10.84,10.84,10.84s10.84-5.42,10.84-10.84l5.42-89.46-5.42-189.76c0-5.42-5.42-10.84-10.84-10.84-8.13,2.71-10.84,5.42-10.84,13.55m-108.43-8.13l-5.42,195.18,5.42,92.17c0,5.42,2.71,8.13,8.13,8.13s8.13-2.71,8.13-8.13l5.42-92.17-5.42-195.18c0-5.42-2.71-8.13-8.13-8.13s-8.13,5.42-8.13,8.13m70.48,0l-5.42,195.18,5.42,92.17c0,5.42,5.42,10.84,10.84,10.84s10.84-5.42,10.84-10.84l5.42-92.17-5.42-195.18c0-5.42-5.42-10.84-10.84-10.84s-10.84,5.42-10.84,10.84m-35.24-5.42l-5.42,200.6,5.42,92.17c0,5.42,2.71,8.13,8.13,8.13s8.13-2.71,8.13-8.13l5.42-92.17-5.42-200.6c0-5.42-5.42-8.13-8.13-8.13s-8.13,2.71-8.13,8.13m108.43-24.4l-5.42,225,5.42,89.46c0,5.42,5.42,10.84,10.84,10.84s10.84-5.42,10.84-10.84l5.42-89.46-5.42-225c0-5.42-5.42-10.84-10.84-10.84s-10.84,5.42-10.84,10.84m37.95-18.98l-5.42,243.98,5.42,89.46c0,5.42,5.42,10.84,10.84,10.84s10.84-5.42,10.84-10.84l5.42-89.46-5.42-243.98c0-5.42-5.42-10.84-10.84-10.84h-2.71c-5.42,0-8.13,5.42-8.13,10.84m43.37-24.4c-8.13,2.71-10.84,5.42-10.84,13.55v344.28c0,5.42,5.42,10.84,10.84,13.55h300.9c59.64,0,108.43-48.8,108.43-108.43s-48.8-108.43-108.43-108.43c-13.55,0-29.82,2.71-40.66,8.13C744.82,75.9,663.5,0,563.19,0h-13.55c-18.98,0-37.95,5.42-56.93,10.84"/></svg>